<svg width="148" height="34" viewBox="0 0 148 34" fill="none" xmlns="http://www.w3.org/2000/svg">
<path d="M5.14893 15.686H2.64404V20H1.23047V9.33594H4.76074C5.96191 9.33594 6.88477 9.60938 7.5293 10.1562C8.17871 10.7031 8.50342 11.499 8.50342 12.5439C8.50342 13.208 8.32275 13.7866 7.96143 14.2798C7.60498 14.7729 7.10693 15.1416 6.46729 15.3857L8.97217 19.9121V20H7.46338L5.14893 15.686ZM2.64404 14.5361H4.80469C5.50293 14.5361 6.05713 14.3555 6.46729 13.9941C6.88232 13.6328 7.08984 13.1494 7.08984 12.5439C7.08984 11.8848 6.89209 11.3794 6.49658 11.0278C6.10596 10.6763 5.53955 10.498 4.79736 10.4932H2.64404V14.5361ZM17.5088 15.0708H12.8872V18.8501H18.2559V20H11.481V9.33594H18.1826V10.4932H12.8872V13.9209H17.5088V15.0708ZM29.1509 15.0122C29.1509 16.0425 28.9873 16.9312 28.6602 17.6782C28.333 18.4204 27.874 19.0015 27.2832 19.4214L29.1875 20.9155L28.228 21.8018L25.9795 20.0146C25.6279 20.1025 25.2568 20.1465 24.8662 20.1465C24.0264 20.1465 23.2817 19.9414 22.6323 19.5312C21.9829 19.1162 21.4775 18.5278 21.1162 17.7661C20.7598 16.9995 20.5767 16.1133 20.5669 15.1074V14.3384C20.5669 13.313 20.7451 12.4072 21.1016 11.6211C21.458 10.835 21.9609 10.2344 22.6104 9.81934C23.2646 9.39941 24.0117 9.18945 24.8516 9.18945C25.7109 9.18945 26.4653 9.39697 27.1147 9.81201C27.769 10.2271 28.272 10.8252 28.6235 11.6064C28.9751 12.3828 29.1509 13.291 29.1509 14.3311V15.0122ZM27.7446 14.3237C27.7446 13.0688 27.4932 12.1021 26.9902 11.4233C26.4922 10.7397 25.7793 10.3979 24.8516 10.3979C23.9678 10.3979 23.2695 10.7373 22.7568 11.416C22.249 12.0898 21.9878 13.0273 21.9731 14.2285V15.0122C21.9731 16.2329 22.2271 17.1948 22.7349 17.8979C23.2476 18.6011 23.958 18.9526 24.8662 18.9526C25.7744 18.9526 26.4775 18.623 26.9756 17.9639C27.4736 17.2998 27.73 16.3501 27.7446 15.1147V14.3237ZM39.8262 9.33594V16.5869C39.8213 17.5928 39.5039 18.4155 38.874 19.0552C38.249 19.6948 37.3994 20.0537 36.3252 20.1318L35.9517 20.1465C34.7847 20.1465 33.8545 19.8315 33.1611 19.2017C32.4678 18.5718 32.1162 17.7051 32.1064 16.6016V9.33594H33.498V16.5576C33.498 17.3291 33.7104 17.9297 34.1353 18.3594C34.5601 18.7842 35.1655 18.9966 35.9517 18.9966C36.7476 18.9966 37.3555 18.7842 37.7754 18.3594C38.2002 17.9346 38.4126 17.3364 38.4126 16.5649V9.33594H39.8262ZM49.0732 15.0708H44.4517V18.8501H49.8203V20H43.0454V9.33594H49.7471V10.4932H44.4517V13.9209H49.0732V15.0708ZM55.7129 15.2466C54.5068 14.8999 53.6279 14.4751 53.0762 13.9722C52.5293 13.4644 52.2559 12.8394 52.2559 12.0972C52.2559 11.2573 52.5903 10.564 53.2593 10.0171C53.9331 9.46533 54.8071 9.18945 55.8813 9.18945C56.6138 9.18945 57.2656 9.33105 57.8369 9.61426C58.4131 9.89746 58.8574 10.2881 59.1699 10.7861C59.4873 11.2842 59.646 11.8286 59.646 12.4194H58.2324C58.2324 11.7749 58.0273 11.2695 57.6172 10.9033C57.207 10.5322 56.6284 10.3467 55.8813 10.3467C55.188 10.3467 54.646 10.5005 54.2554 10.8081C53.8696 11.1108 53.6768 11.5332 53.6768 12.0752C53.6768 12.5098 53.8599 12.8784 54.2261 13.1812C54.5972 13.479 55.2246 13.7524 56.1084 14.0015C56.9971 14.2505 57.6904 14.5264 58.1885 14.8291C58.6914 15.127 59.0625 15.4761 59.3018 15.8765C59.5459 16.2769 59.668 16.748 59.668 17.29C59.668 18.1543 59.3311 18.8477 58.6572 19.3701C57.9834 19.8877 57.0825 20.1465 55.9546 20.1465C55.2222 20.1465 54.5386 20.0073 53.9038 19.729C53.269 19.4458 52.7783 19.0601 52.4316 18.5718C52.0898 18.0835 51.9189 17.5293 51.9189 16.9092H53.3325C53.3325 17.5537 53.5693 18.064 54.043 18.4399C54.5215 18.811 55.1587 18.9966 55.9546 18.9966C56.6968 18.9966 57.2656 18.8452 57.6611 18.5425C58.0566 18.2397 58.2544 17.8271 58.2544 17.3047C58.2544 16.7822 58.0713 16.3794 57.7051 16.0962C57.3389 15.8081 56.6748 15.5249 55.7129 15.2466ZM69.8452 10.4932H66.4175V20H65.0186V10.4932H61.5981V9.33594H69.8452V10.4932ZM82.7437 17.2168H78.2759L77.2725 20H75.8223L79.8945 9.33594H81.125L85.2046 20H83.7617L82.7437 17.2168ZM78.7007 16.0596H82.3262L80.5098 11.0718L78.7007 16.0596ZM92.3608 20V9.33594H95.3711C96.2988 9.33594 97.1191 9.54102 97.832 9.95117C98.5449 10.3613 99.0942 10.9448 99.48 11.7017C99.8706 12.4585 100.068 13.3276 100.073 14.3091V14.9902C100.073 15.9961 99.8779 16.8774 99.4873 17.6343C99.1016 18.3911 98.5474 18.9722 97.8247 19.3774C97.1069 19.7827 96.2695 19.9902 95.3125 20H92.3608ZM93.7671 10.4932V18.8501H95.2466C96.3306 18.8501 97.1729 18.5132 97.7734 17.8394C98.3789 17.1655 98.6816 16.2061 98.6816 14.9609V14.3384C98.6816 13.1274 98.396 12.1875 97.8247 11.5186C97.2583 10.8447 96.4526 10.5029 95.4077 10.4932H93.7671ZM109.232 15.0708H104.611V18.8501H109.979V20H103.205V9.33594H109.906V10.4932H104.611V13.9209H109.232V15.0708ZM114.546 9.33594L118.033 18.0371L121.519 9.33594H123.343V20H121.937V15.8472L122.068 11.3647L118.567 20H117.491L113.997 11.3867L114.136 15.8472V20H112.73V9.33594H114.546ZM135.029 15.0122C135.029 16.0571 134.853 16.9702 134.501 17.7515C134.15 18.5278 133.652 19.1211 133.007 19.5312C132.363 19.9414 131.611 20.1465 130.751 20.1465C129.912 20.1465 129.167 19.9414 128.518 19.5312C127.868 19.1162 127.363 18.5278 127.001 17.7661C126.645 16.9995 126.462 16.1133 126.452 15.1074V14.3384C126.452 13.313 126.63 12.4072 126.987 11.6211C127.343 10.835 127.846 10.2344 128.496 9.81934C129.15 9.39941 129.897 9.18945 130.737 9.18945C131.591 9.18945 132.343 9.39697 132.993 9.81201C133.647 10.2222 134.15 10.8203 134.501 11.6064C134.853 12.3877 135.029 13.2983 135.029 14.3384V15.0122ZM133.63 14.3237C133.63 13.0591 133.376 12.0898 132.868 11.416C132.36 10.7373 131.65 10.3979 130.737 10.3979C129.848 10.3979 129.147 10.7373 128.635 11.416C128.127 12.0898 127.866 13.0273 127.851 14.2285V15.0122C127.851 16.2378 128.107 17.2021 128.62 17.9053C129.138 18.6035 129.848 18.9526 130.751 18.9526C131.66 18.9526 132.363 18.623 132.861 17.9639C133.359 17.2998 133.615 16.3501 133.63 15.1147V14.3237Z" fill="#1C182A"/>
</svg>
