<svg width="125" height="40" viewBox="0 0 125 40" fill="none" xmlns="http://www.w3.org/2000/svg">
<path d="M27.0377 14.668C27.8091 14.668 28.1948 14.9852 28.1948 15.6197V15.8202C28.1948 16.2877 27.7084 16.9391 26.7358 17.774C25.7632 18.609 25.126 19.3939 24.8241 20.1287L18.3345 37.4127C18.0326 38.281 17.4457 38.7153 16.5737 38.7153H12.1465C11.3752 38.7153 10.7715 38.281 10.3355 37.4127L2.68866 20.1287C2.42035 19.5275 1.9005 18.7927 1.12911 17.9243C0.391264 17.0226 0.0223389 16.3211 0.0223389 15.8202V15.6197C0.0223389 14.9852 0.408034 14.668 1.17942 14.668H12.7503C13.4881 14.668 13.8571 15.0019 13.8571 15.6699V15.8703C13.8571 16.2043 13.7061 16.6051 13.4043 17.0727C13.1023 17.5068 12.8843 17.9076 12.7503 18.2751C12.6496 18.6424 12.7334 19.3104 13.0018 20.2789L17.3283 31.6012L21.0007 21.5314C21.3697 20.1287 21.42 19.1601 21.1517 18.6257C20.8833 18.0579 20.4809 17.5402 19.9443 17.0727C19.4412 16.5716 19.1896 16.1708 19.1896 15.8703V15.6699C19.1896 15.0019 19.5754 14.668 20.3467 14.668H27.0377Z" fill="#E6DEE7"/>
<path d="M33.9798 11.7121C32.2693 11.7121 30.8775 11.2445 29.8042 10.3093C28.731 9.34076 28.1945 8.13839 28.1945 6.70223C28.1945 5.26609 28.731 4.08042 29.8042 3.14524C30.8775 2.17667 32.2693 1.69238 33.9798 1.69238C35.6567 1.69238 37.0318 2.17667 38.1051 3.14524C39.1783 4.08042 39.7149 5.26609 39.7149 6.70223C39.7149 8.13839 39.1783 9.34076 38.1051 10.3093C37.0318 11.2445 35.6567 11.7121 33.9798 11.7121ZM28.5969 38.7153C27.7919 38.7153 27.3895 38.3979 27.3895 37.7634V37.5629C27.3895 37.1621 27.7248 36.5443 28.3956 35.7093C29.0664 34.8744 29.4018 34.0394 29.4018 33.2044V23.6857C29.4018 22.8172 29.0664 21.9823 28.3956 21.1808C27.7248 20.3458 27.3895 19.7779 27.3895 19.4773V19.277C27.3895 18.8762 27.7752 18.4921 28.5465 18.1248L36.1431 14.4175C36.8473 14.1169 37.4008 14.0834 37.8032 14.3172C38.2057 14.5511 38.407 14.9351 38.407 15.4695V33.2044C38.407 34.0394 38.7759 34.8744 39.5137 35.7093C40.2851 36.5443 40.6707 37.1621 40.6707 37.5629V37.7634C40.6707 38.3979 40.2516 38.7153 39.413 38.7153H28.5969Z" fill="#E6DEE7"/>
<path d="M55.0372 39.2162C51.1468 39.2162 47.8432 38.0306 45.1266 35.6592C42.4434 33.2545 41.1019 30.2486 41.1019 26.6415C41.1019 23.0344 42.4434 20.062 45.1266 17.724C47.8097 15.3526 50.9958 14.167 54.6851 14.167C58.5085 14.167 61.7618 15.3526 64.4448 17.724C67.128 20.0953 68.4695 23.1013 68.4695 26.7417C68.4695 30.3488 67.1614 33.3381 64.5454 35.7094C61.9294 38.0473 58.7601 39.2162 55.0372 39.2162ZM56.0937 36.7614C58.2402 36.7614 59.3134 34.7074 59.3134 30.5993C59.3134 29.0964 59.0954 27.3095 58.6594 25.2388C58.257 23.168 57.5526 21.2142 56.5464 19.3773C55.5738 17.5402 54.4838 16.6218 53.2765 16.6218C52.1026 16.6218 51.2642 17.1394 50.7611 18.1749C50.258 19.2102 50.0064 20.78 50.0064 22.8841C50.0064 23.9863 50.1406 25.2888 50.4089 26.7918C50.6773 28.2948 51.0462 29.8144 51.5157 31.3508C51.9852 32.8537 52.6225 34.1396 53.4274 35.2084C54.2658 36.2438 55.1547 36.7614 56.0937 36.7614Z" fill="#E6DEE7"/>
<path d="M70.2762 38.7146C69.5048 38.7146 69.1191 38.3973 69.1191 37.7628V37.5623C69.1191 37.1615 69.4377 36.5604 70.075 35.7588C70.7457 34.9238 71.0812 34.0888 71.0812 33.2538V10.3588C71.0812 9.49042 70.7457 8.65545 70.075 7.85387C69.4377 7.01889 69.1191 6.43441 69.1191 6.10042V5.90002C69.1191 5.53264 69.4881 5.14855 70.2259 4.74776L77.8225 1.04046C78.5267 0.739871 79.0802 0.723172 79.4826 0.990365C79.9186 1.22416 80.1366 1.59155 80.1366 2.09253V33.2538C80.1366 34.0888 80.5055 34.9238 81.2433 35.7588C81.9812 36.5604 82.3501 37.1615 82.3501 37.5623V37.7628C82.3501 38.3973 81.9477 38.7146 81.1428 38.7146H70.2762Z" fill="#E6DEE7"/>
<path d="M103.667 30.7997C104.036 30.4324 104.439 30.3321 104.875 30.4991C105.344 30.6327 105.562 30.9666 105.529 31.501C105.462 33.171 104.489 34.8744 102.611 36.6111C100.733 38.3479 98.3012 39.2162 95.3163 39.2162C91.6606 39.2162 88.6756 38.0473 86.3615 35.7094C84.0472 33.3714 82.8901 30.3154 82.8901 26.5413C82.8901 22.9342 84.0976 19.9784 86.5124 17.6738C88.9607 15.3359 91.8786 14.167 95.2659 14.167C98.3179 14.167 100.682 14.8684 102.359 16.2711C104.036 17.6738 104.875 19.2604 104.875 21.0305C104.875 22.4333 104.221 23.4686 102.913 24.1366L92.9015 29.7477C94.2765 31.9185 96.1882 33.004 98.6366 33.004C99.6763 33.004 100.649 32.8037 101.554 32.4029C102.493 31.9687 103.198 31.4343 103.667 30.7997ZM94.3603 16.6218C93.3543 16.6218 92.5326 17.1228 91.8953 18.1248C91.2916 19.1268 90.9898 20.3792 90.9898 21.8822C90.9898 23.8861 91.2413 25.6396 91.7444 27.1425L96.4231 24.3369C97.295 23.7358 97.731 22.8841 97.731 21.782C97.731 20.6798 97.446 19.5442 96.8758 18.3752C96.3391 17.2063 95.5007 16.6218 94.3603 16.6218Z" fill="#E6DEE7"/>
<path d="M116.609 39.2155C114.061 39.2155 112.048 38.4139 110.572 36.8108C109.13 35.2076 108.409 32.9198 108.409 29.9473V18.0739H106.498C106.162 18.0739 105.877 17.9737 105.642 17.7733C105.441 17.5395 105.34 17.2556 105.34 16.9217V15.8195C105.34 15.0513 105.726 14.6673 106.498 14.6673H107.453C108.996 14.6673 110.321 14.2163 111.428 13.3146C112.534 12.3794 113.256 11.1436 113.591 9.60726C113.759 8.73888 114.211 8.30469 114.95 8.30469H116.107C117.011 8.30469 117.464 8.73888 117.464 9.60726V14.6673H122.647C122.982 14.6673 123.25 14.7841 123.452 15.0179C123.686 15.2182 123.804 15.4854 123.804 15.8195V16.9217C123.804 17.2556 123.686 17.5395 123.452 17.7733C123.25 17.9737 122.982 18.0739 122.647 18.0739H117.464V30.0976C117.464 30.9325 117.682 31.6005 118.118 32.1016C118.555 32.5691 119.092 32.8029 119.728 32.8029C121.171 32.8029 122.278 32.185 123.049 30.9492C123.283 30.6486 123.552 30.4817 123.854 30.4483C124.156 30.3814 124.407 30.4316 124.609 30.5986C124.843 30.7656 124.961 30.9994 124.961 31.3C124.961 33.4041 124.206 35.2578 122.697 36.8609C121.221 38.4307 119.191 39.2155 116.609 39.2155Z" fill="#E6DEE7"/>
</svg>
