<svg width="25" height="25" viewBox="0 0 25 25" fill="none" xmlns="http://www.w3.org/2000/svg">
<path d="M19.6305 0.424805H5.71884C2.97527 0.424805 0.750393 2.64968 0.750393 5.39325V19.3049C0.750393 22.0485 2.97527 24.2733 5.71884 24.2733H19.6305C22.3751 24.2733 24.599 22.0485 24.599 19.3049V5.39325C24.599 2.64968 22.3751 0.424805 19.6305 0.424805ZM8.69991 19.3049H5.71884V8.37432H8.69991V19.3049ZM7.20938 7.11432C6.24947 7.11432 5.47042 6.32931 5.47042 5.36146C5.47042 4.3936 6.24947 3.60859 7.20938 3.60859C8.16928 3.60859 8.94833 4.3936 8.94833 5.36146C8.94833 6.32931 8.17028 7.11432 7.20938 7.11432ZM20.6242 19.3049H17.6431V13.7363C17.6431 10.3895 13.6683 10.6429 13.6683 13.7363V19.3049H10.6873V8.37432H13.6683V10.1282C15.0556 7.5585 20.6242 7.36871 20.6242 12.5885V19.3049Z" fill="white"/>
</svg>
